<svg xmlns="http://www.w3.org/2000/svg"
    xmlns:xlink="http://www.w3.org/1999/xlink" style="margin: auto; background: rgb(241, 242, 243); display: block;" width="204px" height="204px" viewBox="0 0 100 100" preserveAspectRatio="xMidYMid">
    <g transform="translate(50 50)">
        <g transform="translate(-19 -19) scale(0.6)">
            <g>
                <animateTransform attributeName="transform" type="rotate" values="0;36" keyTimes="0;1" dur="0.19193857965451055s" begin="0s" repeatCount="indefinite"></animateTransform>
                <path d="M35.367528140440484 26.175139985015367 L38.195955265186676 29.00356710976156 L29.003567109761562 38.195955265186676 L26.17513998501537 35.367528140440484 A44 44 0 0 1 13.227570054767476 41.96464452901059 L13.227570054767476 41.96464452901059 L13.853307914928399 45.915397891391144 L1.0133594871916136 47.949045936914146 L0.3876216270306899 43.99829257453359 A44 44 0 0 1 -13.964870203256401 41.725081188731096 L-13.964870203256401 41.725081188731096 L-15.780832202214588 45.28910728548457 L-27.363917016663365 39.38723078887046 L-25.547955017705178 35.82320469211699 A44 44 0 0 1 -35.82320469211698 25.54795501770519 L-35.82320469211698 25.54795501770519 L-39.387230788870454 27.363917016663375 L-45.28910728548456 15.780832202214595 L-41.72508118873109 13.964870203256408 A44 44 0 0 1 -43.99829257453359 -0.3876216270306818 L-43.99829257453359 -0.3876216270306818 L-47.949045936914146 -1.0133594871916047 L-45.915397891391144 -13.853307914928392 L-41.96464452901059 -13.227570054767469 A44 44 0 0 1 -35.367528140440484 -26.175139985015363 L-35.367528140440484 -26.175139985015363 L-38.195955265186676 -29.003567109761555 L-29.003567109761548 -38.19595526518668 L-26.175139985015356 -35.36752814044049 A44 44 0 0 1 -13.2275700547675 -41.96464452901059 L-13.2275700547675 -41.96464452901059 L-13.853307914928426 -45.915397891391144 L-1.0133594871915999 -47.949045936914146 L-0.38762162703067576 -43.99829257453359 A44 44 0 0 1 13.964870203256377 -41.7250811887311 L13.964870203256377 -41.7250811887311 L15.780832202214564 -45.289107285484576 L27.36391701666338 -39.387230788870454 L25.547955017705192 -35.82320469211698 A44 44 0 0 1 35.823204692116974 -25.547955017705206 L35.823204692116974 -25.547955017705206 L39.38723078887045 -27.363917016663393 L45.28910728548457 -15.780832202214583 L41.725081188731096 -13.964870203256394 A44 44 0 0 1 43.99829257453359 0.38762162703065683 L43.99829257453359 0.38762162703065683 L47.949045936914146 1.0133594871915792 L45.915397891391144 13.853307914928406 L41.96464452901059 13.227570054767483 A44 44 0 0 1 35.367528140440506 26.175139985015342 M0 -35A35 35 0 1 0 0 35 A35 35 0 1 0 0 -35" fill="#6a6a6a"></path>
            </g>
        </g>
        <g transform="translate(19 19) scale(0.6)">
            <g>
                <animateTransform attributeName="transform" type="rotate" values="36;0" keyTimes="0;1" dur="0.19193857965451055s" begin="-0.09596928982725528s" repeatCount="indefinite"></animateTransform>
                <path d="M-35.367528140440484 -26.175139985015363 L-38.195955265186676 -29.003567109761555 L-29.003567109761548 -38.19595526518668 L-26.175139985015356 -35.36752814044049 A44 44 0 0 1 -13.2275700547675 -41.96464452901059 L-13.2275700547675 -41.96464452901059 L-13.853307914928426 -45.915397891391144 L-1.0133594871915999 -47.949045936914146 L-0.38762162703067576 -43.99829257453359 A44 44 0 0 1 13.964870203256377 -41.7250811887311 L13.964870203256377 -41.7250811887311 L15.780832202214564 -45.289107285484576 L27.36391701666338 -39.387230788870454 L25.547955017705192 -35.82320469211698 A44 44 0 0 1 35.823204692116974 -25.547955017705206 L35.823204692116974 -25.547955017705206 L39.38723078887045 -27.363917016663393 L45.28910728548457 -15.780832202214583 L41.725081188731096 -13.964870203256394 A44 44 0 0 1 43.99829257453359 0.38762162703065683 L43.99829257453359 0.38762162703065683 L47.949045936914146 1.0133594871915792 L45.915397891391144 13.853307914928406 L41.96464452901059 13.227570054767483 A44 44 0 0 1 35.367528140440506 26.175139985015342 L35.367528140440506 26.175139985015342 L38.1959552651867 29.00356710976153 L29.003567109761555 38.195955265186676 L26.175139985015363 35.367528140440484 A44 44 0 0 1 13.227570054767504 41.964644529010585 L13.227570054767504 41.964644529010585 L13.853307914928429 45.91539789139114 L1.0133594871916056 47.949045936914146 L0.3876216270306811 43.99829257453359 A44 44 0 0 1 -13.964870203256446 41.72508118873108 L-13.964870203256446 41.72508118873108 L-15.780832202214635 45.289107285484555 L-27.36391701666338 39.387230788870454 L-25.54795501770519 35.82320469211698 A44 44 0 0 1 -35.82320469211701 25.54795501770515 L-35.82320469211701 25.54795501770515 L-39.38723078887048 27.363917016663336 L-45.28910728548457 15.780832202214585 L-41.725081188731096 13.9648702032564 A44 44 0 0 1 -43.99829257453359 -0.38762162703072967 L-43.99829257453359 -0.38762162703072967 L-47.949045936914146 -1.0133594871916551 L-45.915397891391144 -13.8533079149284 L-41.96464452901059 -13.227570054767476 A44 44 0 0 1 -35.36752814044046 -26.175139985015402 M0 -35A35 35 0 1 0 0 35 A35 35 0 1 0 0 -35" fill="#979797"></path>
            </g>
        </g>
    </g>
</svg>